<svg xmlns="http://www.w3.org/2000/svg" version="1.1" xmlns:xlink="http://www.w3.org/1999/xlink" xmlns:svgjs="http://svgjs.com/svgjs" width="1440" height="560" preserveAspectRatio="none" viewBox="0 0 1440 560"><g mask="url(&quot;#SvgjsMask1004&quot;)" fill="none"><rect width="1440" height="560" x="0" y="0" fill="url(#SvgjsLinearGradient1005)"></rect><path d="M1440 0L1171.1100000000001 0L1440 77.33z" fill="rgba(255, 255, 255, .1)"></path><path d="M1171.1100000000001 0L1440 77.33L1440 275.85L777.0900000000001 0z" fill="rgba(255, 255, 255, .075)"></path><path d="M777.09 0L1440 275.85L1440 398.3L463.50000000000006 0z" fill="rgba(255, 255, 255, .05)"></path><path d="M463.5 0L1440 398.3L1440 426.61L273.15 0z" fill="rgba(255, 255, 255, .025)"></path><path d="M0 560L274.28 560L0 441.49z" fill="rgba(0, 0, 0, .1)"></path><path d="M0 441.49L274.28 560L860.47 560L0 210.68z" fill="rgba(0, 0, 0, .075)"></path><path d="M0 210.68L860.47 560L906.03 560L0 130.19z" fill="rgba(0, 0, 0, .05)"></path><path d="M0 130.19L906.03 560L1096.95 560L0 85.11z" fill="rgba(0, 0, 0, .025)"></path></g><defs><mask id="SvgjsMask1004"><rect width="1440" height="560" fill="#ffffff"></rect></mask><linearGradient x1="15.28%" y1="-39.29%" x2="84.72%" y2="139.29%" gradientUnits="userSpaceOnUse" id="SvgjsLinearGradient1005"><stop stop-color="#0e2a47" offset="0"></stop><stop stop-color="rgba(5, 68, 94, 1)" offset="1"></stop></linearGradient></defs></svg>