<svg xmlns="http://www.w3.org/2000/svg" viewBox="0 0 1440 320">
<path fill="#0e033d" fill-opacity="1" 
d="M0,0L26.7,53.3C53.3,107,107,213,160,261.3C213.3,309,267,299,320,277.3C373.3,256,
427,224,480,181.3C533.3,139,587,85,640,64C693.3,43,747,53,800,96C853.3,139,907,213,
960,202.7C1013.3,192,1067,96,1120,48C1173.3,0,1227,0,1280,16C1333.3,32,1387,64,1413,
80L1440,96L1440,320L1413.3,320C1386.7,320,1333,320,1280,320C1226.7,320,1173,320,1120,
320C1066.7,320,1013,320,960,320C906.7,320,853,320,800,320C746.7,320,693,320,640,320C586.7,
320,533,320,480,320C426.7,320,373,320,320,320C266.7,320,213,320,160,320C106.7,320,53,320,27,320L0,320Z">
</path>
</svg>